<svg xmlns="http://www.w3.org/2000/svg" width="32" height="32" viewBox="0 0 32 32" fill="none">
  <!-- Градиентный фон как в Header.tsx -->
  <defs>
    <linearGradient id="bgGrad" x1="0%" y1="0%" x2="100%" y2="100%">
      <stop offset="0%" stop-color="#2563eb"/>
      <stop offset="100%" stop-color="#4f46e5"/>
    </linearGradient>
  </defs>
  <rect width="32" height="32" rx="8" fill="url(#bgGrad)"/>
  
  <!-- Кофейная кружка как в Header.tsx -->
  <g transform="translate(8, 6)">
    <path d="M2 19h20v3H2v-3zM20 3H4v10c0 2.21 1.79 4 4 4h6c2.21 0 4-1.79 4-4v-1h2c1.11 0 2-.89 2-2V8c0-1.11-.89-2-2-2h-2V3zm0 7h2v2h-2v-2z" fill="white" transform="scale(0.65)"/>
    <path d="M5 1h14c.55 0 1 .45 1 1s-.45 1-1 1H5c-.55 0-1-.45-1-1s.45-1 1-1z" fill="white" transform="scale(0.65)"/>
  </g>
</svg>
